Motion_pl07
version=1
nRows=6
nColumns=43
inDegrees=yes
endheader
time	pelvis_tilt	pelvis_list	pelvis_rotation	pelvis_tx	pelvis_ty	pelvis_tz	hip_flexion_r	hip_adduction_r	hip_rotation_r	knee_angle_r	ankle_angle_r	subtalar_angle_r	mtp_angle_r	hip_flexion_l	hip_adduction_l	hip_rotation_l	knee_angle_l	ankle_angle_l	subtalar_angle_l	mtp_angle_l	lumbar_extension	lumbar_bending	lumbar_rotation	neck_flexion	neck_lateral_bending	neck_rotation	arm_flex_r	arm_add_r	arm_rot_r	elbow_flex_r	pro_sup_r	wrist_flex_r	wrist_dev_r	hand_finger_flex_r	arm_flex_l	arm_add_l	arm_rot_l	elbow_flex_l	pro_sup_l	wrist_flex_l	wrist_dev_l	hand_finger_flex_l
      0.00250000	     -0.13297623	    -20.52776543	     91.27279515	      0.01493164	      1.68100866	      1.88540222	     96.75658550	    -15.05432155	     10.68583053	   -140.62331749	     43.59818786	      6.25484345	    -21.93967167	     96.46370361	    -13.68732335	      5.37847059	   -139.45937662	     45.26328015	     -3.44673972	    -31.30450101	    -41.15289607	     -1.76739349	     -0.05746690	     41.23120703	      1.70863913	      3.40022512	     20.96977688	    -29.28199995	    -16.13082879	     87.06714366	     66.80384811	     -7.30630423	    -21.54929457	     59.02397231	     35.75211057	    -43.20516892	     10.88464528	     82.43937440	     79.78523764	    -41.72115419	      2.64417434	     71.62583427
      0.00500000	     -0.10287143	    -20.59061375	     91.22949323	      0.01533026	      1.67946700	      1.88468599	     96.86307169	    -14.94233149	     10.68320517	   -140.85848885	     43.74478321	      6.11060024	    -24.20142323	     96.59820658	    -13.83427624	      5.55504469	   -139.70427747	     45.52189582	     -3.15470406	    -31.96292323	    -41.09692656	     -1.83358400	      0.42336907	     41.28248588	      1.45771858	      3.05118632	     21.56811360	    -29.92996558	    -15.63739674	     87.36899330	     66.13841676	     -7.56295045	    -21.35000599	     59.00205433	     37.90451556	    -43.13330384	     12.91639814	     82.01787884	     78.46640140	    -40.52719055	      2.71479470	     70.73553739
      0.00750000	     -0.08942779	    -20.73219366	     91.24299541	      0.01550029	      1.67777613	      1.88406561	     97.08684433	    -14.90697949	     10.78769796	   -141.09615260	     43.77254309	      6.21987509	    -24.42210992	     96.85853806	    -13.85864829	      5.65787126	   -139.93003867	     45.46970137	     -3.19188131	    -32.01717472	    -40.96461771	     -1.79711929	      0.31067788	     41.25160849	      1.42205017	      3.14862994	     22.83855765	    -30.30123672	    -14.51834918	     87.32355241	     66.39636240	     -7.63255855	    -21.03025464	     58.90273062	     39.10855825	    -43.39912982	     13.91880982	     82.06287669	     78.55567599	    -40.25378250	      2.81454943	     70.71937358
      0.01000000	     -0.10407146	    -20.83376824	     91.23700319	      0.01569658	      1.67617662	      1.88343913	     97.26983906	    -14.86082330	     10.92625637	   -141.34239741	     43.82241942	      6.33402111	    -24.64234935	     97.05160975	    -13.89894914	      5.73519981	   -140.15067180	     45.46602367	     -3.18777663	    -32.05969817	    -40.87358859	     -1.80318942	      0.22194337	     41.23270488	      1.41317862	      3.23763045	     24.09350582	    -30.65874307	    -13.42173704	     87.27274254	     66.54476873	     -7.83601863	    -20.71944511	     58.73068791	     40.42347422	    -43.63118762	     15.03012365	     82.05228597	     78.39697972	    -39.96421689	      3.00894228	     70.72514737
      0.01250000	     -0.12646642	    -20.91624926	     91.22594517	      0.01587863	      1.67460307	      1.88279435	     97.43092593	    -14.81597541	     11.08475945	   -141.57405580	     43.88060252	      6.45272974	    -24.87100113	     97.21804933	    -13.92748914	      5.81671103	   -140.38071357	     45.47596584	     -3.17543569	    -32.09499953	    -40.79841763	     -1.82214151	      0.16342064	     41.20531344	      1.41165866	      3.29487437	     25.31311237	    -31.01315751	    -12.34685565	     87.24188245	     66.60340934	     -8.13241930	    -20.42614356	     58.51370599	     41.82140716	    -43.82467684	     16.22169286	     82.01564492	     78.04745658	    -39.71418719	      3.23480937	     70.72478635
      0.01500000	     -0.22687422	    -20.91160147	     91.20181455	      0.01599092	      1.67315809	      1.88206219	     97.52339171	    -14.79970091	     11.36168846	   -141.85438099	     44.06218172	      6.65056485	    -25.65886634	     97.23298944	    -13.95888018	      5.78275303	   -140.60239291	     45.53439471	     -3.13823706	    -32.18598952	    -40.80820100	     -1.94631633	      0.27593563	     41.18118547	      1.52639616	      3.19209353	     26.22031222	    -31.58706334	    -11.40017901	     87.43359786	     66.19051704	     -9.11332648	    -20.19341767	     58.10380094	     43.66391645	    -43.79099438	     18.00410775	     81.82588178	     76.44743736	    -39.97870762	      3.41812288	     70.58752924
